<svg id="Layer_1" data-name="Layer 1" xmlns="http://www.w3.org/2000/svg" viewBox="0 0 665.81 197.95"><defs><style>.cls-1{fill:#68b42c;}.cls-1,.cls-2,.cls-3{fill-rule:evenodd;}.cls-2{fill:#9dc761;}.cls-3{fill:#a0c863;}.cls-4{fill:none;stroke:#68b42c;stroke-miterlimit:2.61;stroke-width:1.98px;}</style></defs><path class="cls-1" d="M154.16,277.59v-59.7c30.18,28.89,77.79,69.15,71,115.59-3.87,26.36-26.92,48.65-53.39,51.79a66.3,66.3,0,0,1-24.35-1.83c23.72-1.22,38.75-16.67,41.07-30.91,2.62-24.39-9.66-31.71-25.83-50.81C155.58,292.52,154.16,289.29,154.16,277.59Z" transform="translate(-66.21 -205.42)"/><path class="cls-2" d="M150.55,272.53l-.36,83.89c.47,9.52,3.75,13.31,12.85,17.85-20.53,13.07-43.28.16-49.27-20.35C107,320.91,131.76,298.25,150.55,272.53Z" transform="translate(-66.21 -205.42)"/><path class="cls-3" d="M164,328.67c-1.36,9.53-.43,27.73-.53,38.2.16,4,1.85,5.35,5.48,2.45,3.82-3,4.51-8.9,4.87-13.88C174.16,347,170.54,334.25,164,328.67Z" transform="translate(-66.21 -205.42)"/><path class="cls-3" d="M163.57,208.63a97.36,97.36,0,1,1-68.85,28.52,97.06,97.06,0,0,1,68.85-28.52Zm63.58,33.79A89.92,89.92,0,1,0,253.48,306,89.63,89.63,0,0,0,227.15,242.42Z" transform="translate(-66.21 -205.42)"/><path class="cls-1" d="M346.94,391.64h49.37V282c0-5-.47-13.08,7.65-13.77a10.67,10.67,0,0,1,4.1,1.66c3.28,3.73,3,6.83,3,11.29V391.64h49.37v-126h0a48.22,48.22,0,0,0-89.26-24.13,48.23,48.23,0,0,0-89.27,24.13h0v126h49.37V281.16c0-4.46-.27-7.56,3-11.29a7.7,7.7,0,0,1,4.74-2.32c8.8.05,8.13,9.39,7.92,13.81Z" transform="translate(-66.21 -205.42)"/><path class="cls-1" d="M601.32,324.23c6.06-5.47,6.92-3.15,11.54,3.21,6.12,8.5,11.69,16.53,17.32,25.35,7.32,11.88,5.11,14.21,2,18.68-13.48,16.91-38.91,26.81-60,26.16a92.74,92.74,0,1,1,60.43-163.09c8.4,7.19,5.6,8.41.39,18.15L618.31,280c-5.11,8-6.76,13.54-15.4,7.06-2.45-2.27-5.36-4.42-7.86-6.61-5.23-3.79-12.61-6.89-19.57-6.89a31.37,31.37,0,0,0,0,62.74C585.5,336.26,594.39,331.16,601.32,324.23Z" transform="translate(-66.21 -205.42)"/><path class="cls-1" d="M725.58,342.66l-12.82,0a7.73,7.73,0,0,1-4.74-2.32c-3.29-3.74-3.3-6.83-3.3-11.3V218.55H655.35v126h0a48.22,48.22,0,0,0,48.21,47.07l22.22.06Z" transform="translate(-66.21 -205.42)"/><circle class="cls-4" cx="656.82" cy="8.99" r="8"/><path class="cls-1" d="M719.12,209.84h4.28a10.26,10.26,0,0,1,1.6.13,5,5,0,0,1,1.33.42,2.41,2.41,0,0,1,.9.8A2.35,2.35,0,0,1,727,214a3,3,0,0,1-1.78.8L728,218.4h-2.92L722.76,215h-1.21v3.42h-2.43v-8.56Zm2.43,3.55H723l.7,0a2.68,2.68,0,0,0,.66-.11,1.24,1.24,0,0,0,.49-.28.74.74,0,0,0,.2-.55.77.77,0,0,0-.17-.52,1,1,0,0,0-.44-.29,2.19,2.19,0,0,0-.61-.14,5.12,5.12,0,0,0-.67,0h-1.6Z" transform="translate(-66.21 -205.42)"/></svg>